<svg width="22" height="22" viewBox="0 0 22 22" fill="none" xmlns="http://www.w3.org/2000/svg">
<path d="M10.7825 5.06105V14.9183C10.7825 15.6444 10.635 16.2843 10.3399 16.8381C10.0572 17.3919 9.65757 17.8226 9.1412 18.1302C8.62482 18.4502 8.01623 18.6102 7.31544 18.6102H3V16.2843H6.17203C6.73759 16.2843 7.1679 16.1982 7.46297 16.0259C7.75804 15.8659 7.90558 15.4967 7.90558 14.9183V5.06105H10.7825ZM5.87696 7.38692V5.06105H9.34406L10.7825 11.4464L5.87696 7.38692ZM7.79493 3.69506V1H10.8563V3.69506H7.79493Z" fill="black"/>
<path d="M11.2175 5.06105V14.9183C11.2175 15.6444 11.365 16.2843 11.6601 16.8381C11.9428 17.3919 12.3424 17.8226 12.8588 18.1302C13.3752 18.4502 13.9838 18.6102 14.6846 18.6102H19V16.2843H15.828C15.2624 16.2843 14.8321 16.1982 14.537 16.0259C14.242 15.8659 14.0944 15.4967 14.0944 14.9183V5.06105H11.2175ZM16.123 7.38692V5.06105H12.6559L11.2175 11.4464L16.123 7.38692ZM14.2051 3.69506V1H11.1437V3.69506H14.2051Z" fill="black"/>
<path d="M11.96 20.4464C11.96 21.0677 11.4586 21.5714 10.84 21.5714C10.2214 21.5714 9.72 21.0677 9.72 20.4464C9.72 19.8251 10.2214 19.3214 10.84 19.3214C11.4586 19.3214 11.96 19.8251 11.96 20.4464Z" fill="black"/>
</svg>
