<svg width="22" height="23" viewBox="0 0 22 23" fill="none" xmlns="http://www.w3.org/2000/svg">
<path d="M11 0C8.08364 0.00333593 5.28769 1.16333 3.22551 3.22551C1.16333 5.28769 0.00333595 8.08364 2.06235e-08 11V22C-3.67956e-05 22.1736 0.0492193 22.3436 0.142038 22.4903C0.234856 22.637 0.36742 22.7543 0.524308 22.8286C0.681196 22.903 0.855958 22.9312 1.02826 22.91C1.20056 22.8889 1.36332 22.8193 1.4976 22.7093L4.2774 20.4348L7.05833 22.7093C7.22209 22.8432 7.42714 22.9164 7.6387 22.9164C7.85026 22.9164 8.05531 22.8432 8.21906 22.7093L11 20.4348L13.7809 22.7093C13.9447 22.8432 14.1497 22.9164 14.3613 22.9164C14.5729 22.9164 14.7779 22.8432 14.9417 22.7093L17.7226 20.4348L20.5024 22.7093C20.6367 22.8193 20.7994 22.8889 20.9717 22.91C21.144 22.9312 21.3188 22.903 21.4757 22.8286C21.6326 22.7543 21.7651 22.637 21.858 22.4903C21.9508 22.3436 22 22.1736 22 22V11C21.9967 8.08364 20.8367 5.28769 18.7745 3.22551C16.7123 1.16333 13.9164 0.00333593 11 0ZM7.79167 11.9167C7.51972 11.9167 7.25388 11.836 7.02776 11.6849C6.80164 11.5339 6.6254 11.3191 6.52133 11.0679C6.41726 10.8166 6.39003 10.5401 6.44309 10.2734C6.49614 10.0067 6.6271 9.76169 6.81939 9.56939C7.01169 9.3771 7.25669 9.24614 7.52342 9.19309C7.79014 9.14003 8.06661 9.16726 8.31786 9.27133C8.5691 9.3754 8.78385 9.55164 8.93494 9.77776C9.08602 10.0039 9.16667 10.2697 9.16667 10.5417C9.16667 10.9063 9.0218 11.2561 8.76394 11.5139C8.50608 11.7718 8.15634 11.9167 7.79167 11.9167ZM14.2083 11.9167C13.9364 11.9167 13.6705 11.836 13.4444 11.6849C13.2183 11.5339 13.0421 11.3191 12.938 11.0679C12.8339 10.8166 12.8067 10.5401 12.8598 10.2734C12.9128 10.0067 13.0438 9.76169 13.2361 9.56939C13.4284 9.3771 13.6734 9.24614 13.9401 9.19309C14.2068 9.14003 14.4833 9.16726 14.7345 9.27133C14.9858 9.3754 15.2005 9.55164 15.3516 9.77776C15.5027 10.0039 15.5833 10.2697 15.5833 10.5417C15.5833 10.9063 15.4385 11.2561 15.1806 11.5139C14.9227 11.7718 14.573 11.9167 14.2083 11.9167Z" fill="black"/>
</svg>
