<svg width="50" height="64" viewBox="0 0 50 64" fill="none" xmlns="http://www.w3.org/2000/svg">
<path d="M24.3204 12.5028V42.8504C24.3204 45.0857 23.8594 47.0559 22.9373 48.7608C22.0536 50.4657 20.8049 51.7918 19.1912 52.7389C17.5776 53.724 15.6757 54.2165 13.4857 54.2165H0L0 47.0559H9.91259C11.68 47.0559 13.0247 46.7907 13.9468 46.2602C14.8689 45.7677 15.3299 44.6311 15.3299 42.8504V12.5028H24.3204ZM8.99049 19.6634V12.5028H19.8252L24.3204 32.1615L8.99049 19.6634ZM14.9842 8.29729V0L24.551 0V8.29729H14.9842Z" fill="white"/>
<path d="M25.6796 12.5028V42.8504C25.6796 45.0857 26.1406 47.0559 27.0627 48.7608C27.9464 50.4657 29.1951 51.7918 30.8088 52.7389C32.4224 53.724 34.3243 54.2165 36.5143 54.2165H50V47.0559H40.0874C38.32 47.0559 36.9753 46.7907 36.0532 46.2602C35.1311 45.7677 34.6701 44.6311 34.6701 42.8504V12.5028H25.6796ZM41.0095 19.6634V12.5028H30.1748L25.6796 32.1615L41.0095 19.6634ZM35.0158 8.29729V0L25.449 0V8.29729H35.0158Z" fill="white"/>
<path d="M28 59.8698C28 61.7827 26.433 63.3333 24.5 63.3333C22.567 63.3333 21 61.7827 21 59.8698C21 57.9569 22.567 56.4062 24.5 56.4062C26.433 56.4062 28 57.9569 28 59.8698Z" fill="white"/>
</svg>
