<svg width="68" height="82" fill="none" xmlns="http://www.w3.org/2000/svg"><path d="M1.515 78v-1.35H5.25c.48 0 .845-.14 1.095-.42.25-.29.375-.68.375-1.17v-7.53h1.59v7.455c0 .48-.065.91-.195 1.29-.13.37-.325.685-.585.945-.25.25-.57.445-.96.585-.38.13-.825.195-1.335.195h-3.72ZM2.73 67.53h5.46v1.35H2.73v-1.35Zm18.53 7.83v-1.35h5.806v1.35H21.26Zm1.68-7.83h2.28L28.46 78h-1.634l-2.115-6.93-.63-2.295-.63 2.31L21.306 78H19.7l3.24-10.47ZM39.448 78V67.53h3.225c.76 0 1.445.125 2.055.375.61.24 1.13.59 1.56 1.05.43.45.76.995.99 1.635.23.64.345 1.355.345 2.145 0 .8-.115 1.525-.345 2.175a4.88 4.88 0 0 1-.99 1.665c-.43.46-.95.815-1.56 1.065-.61.24-1.295.36-2.055.36h-3.225Zm1.59-1.35h1.635c.68 0 1.265-.16 1.755-.48.49-.33.865-.79 1.125-1.38.27-.59.405-1.275.405-2.055 0-.79-.135-1.47-.405-2.04-.26-.58-.635-1.025-1.125-1.335-.49-.32-1.075-.48-1.755-.48h-1.635v7.77ZM61.697 78V67.53h1.59V78h-1.59Zm-2.624-10.47h6.825v1.35h-6.825v-1.35Zm0 9.12h6.825V78h-6.825v-1.35ZM33.32 12.634v30.667c0 2.26-.46 4.25-1.383 5.973-.883 1.723-2.132 3.063-3.746 4.02-1.613.995-3.515 1.493-5.705 1.493H9v-7.236h9.913c1.767 0 3.112-.268 4.034-.804.922-.498 1.383-1.646 1.383-3.446V12.634h8.99ZM17.99 19.87v-7.236h10.835v7.236H17.991Zm5.994-11.485V0h9.567v8.385h-9.567ZM34.68 12.634v30.667c0 2.26.46 4.25 1.383 5.973.883 1.723 2.132 3.063 3.746 4.02 1.613.995 3.515 1.493 5.705 1.493H59v-7.236h-9.913c-1.767 0-3.112-.268-4.034-.804-.922-.498-1.383-1.646-1.383-3.446V12.634h-8.99Zm15.33 7.236v-7.236H39.175v7.236H50.01ZM44.016 8.385V0h-9.567v8.385h9.567Z" fill="#fff"/><circle cx="33.5" cy="60.5" r="3.5" fill="#fff"/></svg>