<svg width="68" height="87" viewBox="0 0 68 87" fill="none" xmlns="http://www.w3.org/2000/svg">
<path d="M33.0758 17.0038V58.2765C33.0758 61.3166 32.4488 63.996 31.1947 66.3147C29.9929 68.6334 28.2947 70.4368 26.1001 71.725C23.9055 73.0646 21.319 73.7345 18.3406 73.7345H0L0 63.996H13.4811C15.8847 63.996 17.7136 63.6353 18.9676 62.9139C20.2217 62.2441 20.8487 60.6983 20.8487 58.2765V17.0038H33.0758ZM12.2271 26.7423V17.0038H26.9623L33.0758 43.7396L12.2271 26.7423ZM20.3784 11.2843V0L33.3893 0V11.2843H20.3784Z" fill="#D8FFDC"/>
<path d="M34.9242 17.0038V58.2765C34.9242 61.3166 35.5512 63.996 36.8053 66.3147C38.0071 68.6334 39.7053 70.4368 41.8999 71.725C44.0945 73.0646 46.681 73.7345 49.6594 73.7345H68V63.996H54.5189C52.1153 63.996 50.2864 63.6353 49.0324 62.9139C47.7783 62.2441 47.1513 60.6983 47.1513 58.2765V17.0038H34.9242ZM55.7729 26.7423V17.0038H41.0377L34.9242 43.7396L55.7729 26.7423ZM47.6216 11.2843V0L34.6107 0V11.2843H47.6216Z" fill="#D8FFDC"/>
<path d="M38.08 81.4229C38.08 84.0244 35.9489 86.1333 33.32 86.1333C30.6911 86.1333 28.56 84.0244 28.56 81.4229C28.56 78.8214 30.6911 76.7125 33.32 76.7125C35.9489 76.7125 38.08 78.8214 38.08 81.4229Z" fill="#D8FFDC"/>
</svg>
