<svg width="68" height="82" viewBox="0 0 68 82" fill="none" xmlns="http://www.w3.org/2000/svg">
<path d="M1.515 78V76.65H5.25C5.73 76.65 6.095 76.51 6.345 76.23C6.595 75.94 6.72 75.55 6.72 75.06V67.53H8.31V74.985C8.31 75.465 8.245 75.895 8.115 76.275C7.985 76.645 7.79 76.96 7.53 77.22C7.28 77.47 6.96 77.665 6.57 77.805C6.19 77.935 5.745 78 5.235 78H1.515ZM2.73 67.53H8.19V68.88H2.73V67.53ZM21.2609 75.36V74.01H27.0659V75.36H21.2609ZM22.9409 67.53H25.2209L28.4609 78H26.8259L24.7109 71.07L24.0809 68.775L23.4509 71.085L21.3059 78H19.7009L22.9409 67.53ZM39.4467 78V67.53H42.6717C43.4317 67.53 44.1167 67.655 44.7267 67.905C45.3367 68.145 45.8567 68.495 46.2867 68.955C46.7167 69.405 47.0467 69.95 47.2767 70.59C47.5067 71.23 47.6217 71.945 47.6217 72.735C47.6217 73.535 47.5067 74.26 47.2767 74.91C47.0467 75.55 46.7167 76.105 46.2867 76.575C45.8567 77.035 45.3367 77.39 44.7267 77.64C44.1167 77.88 43.4317 78 42.6717 78H39.4467ZM41.0367 76.65H42.6717C43.3517 76.65 43.9367 76.49 44.4267 76.17C44.9167 75.84 45.2917 75.38 45.5517 74.79C45.8217 74.2 45.9567 73.515 45.9567 72.735C45.9567 71.945 45.8217 71.265 45.5517 70.695C45.2917 70.115 44.9167 69.67 44.4267 69.36C43.9367 69.04 43.3517 68.88 42.6717 68.88H41.0367V76.65ZM61.6976 78V67.53H63.2876V78H61.6976ZM59.0726 67.53H65.8976V68.88H59.0726V67.53ZM59.0726 76.65H65.8976V78H59.0726V76.65Z" fill="white"/>
<path d="M33.3204 12.6344V43.3014C33.3204 45.5603 32.8594 47.5512 31.9373 49.2741C31.0536 50.9969 29.8049 52.3369 28.1912 53.2941C26.5776 54.2895 24.6757 54.7872 22.4857 54.7872H9V47.5512H18.9126C20.68 47.5512 22.0247 47.2832 22.9468 46.7472C23.8689 46.2495 24.3299 45.1009 24.3299 43.3014V12.6344H33.3204ZM17.9905 19.8704V12.6344H28.8252V19.8704H17.9905ZM23.9842 8.38463V0H33.551V8.38463H23.9842Z" fill="white"/>
<path d="M34.6796 12.6344V43.3014C34.6796 45.5603 35.1406 47.5512 36.0627 49.2741C36.9464 50.9969 38.1951 52.3369 39.8088 53.2941C41.4224 54.2895 43.3243 54.7872 45.5143 54.7872H59V47.5512H49.0874C47.32 47.5512 45.9753 47.2832 45.0532 46.7472C44.1311 46.2495 43.6701 45.1009 43.6701 43.3014V12.6344H34.6796ZM50.0095 19.8704V12.6344H39.1748V19.8704H50.0095ZM44.0158 8.38463V0H34.449V8.38463H44.0158Z" fill="white"/>
<circle cx="33.5" cy="60.5" r="3.5" fill="white"/>
</svg>
