<svg width="609" height="406" viewBox="0 0 609 406" fill="none" xmlns="http://www.w3.org/2000/svg">
<path d="M299.031 240.139C300.907 242.029 301.953 244.587 301.939 247.251C301.924 249.915 300.85 252.467 298.953 254.344C297.056 256.222 294.491 257.272 291.823 257.264C289.154 257.255 286.601 256.188 284.724 254.299L262.349 231.766C261.42 230.83 260.684 229.721 260.185 228.5C259.686 227.28 259.433 225.973 259.44 224.654C259.448 223.335 259.715 222.029 260.227 220.812C260.74 219.595 261.487 218.49 262.426 217.561C263.365 216.631 264.479 215.894 265.702 215.394C266.926 214.893 268.235 214.637 269.557 214.641C270.878 214.646 272.185 214.91 273.403 215.418C274.621 215.927 275.726 216.671 276.656 217.606L299.031 240.139ZM219.935 238.002C217.542 239.186 215.716 241.269 214.858 243.794C214.001 246.318 214.182 249.077 215.362 251.464L233.164 287.457C234.345 289.844 236.428 291.662 238.954 292.513C241.481 293.364 244.245 293.176 246.638 291.993C249.032 290.809 250.858 288.726 251.715 286.201C252.573 283.677 252.391 280.918 251.211 278.531L233.409 242.538C232.229 240.151 230.146 238.333 227.619 237.482C225.092 236.632 222.328 236.819 219.935 238.002ZM177.9 259.367C176.591 259.549 175.33 259.987 174.189 260.655C173.049 261.324 172.051 262.209 171.252 263.262C170.454 264.315 169.87 265.514 169.535 266.791C169.2 268.068 169.121 269.397 169.301 270.704L173.629 302.162C173.992 304.8 175.39 307.184 177.517 308.79C179.643 310.395 182.322 311.09 184.966 310.722C187.61 310.354 190.001 308.952 191.614 306.826C193.227 304.7 193.929 302.023 193.566 299.385L189.237 267.927C189.058 266.62 188.622 265.363 187.955 264.225C187.288 263.088 186.403 262.093 185.35 261.299C184.297 260.504 183.097 259.924 181.819 259.592C180.541 259.261 179.209 259.184 177.9 259.367ZM315.23 90.0735C324.253 108.318 317.334 132.277 295.734 157.52C276.053 180.54 245.999 202.712 211.034 220.006C176.068 237.299 140.207 247.729 109.967 249.4C76.7951 251.247 53.5536 242.205 44.5301 223.96C39.8737 214.546 37.1036 198.528 50.3277 175.594C58.9185 160.692 73.0587 145.088 91.3565 130.313C92.6103 118.41 96.525 106.935 102.812 96.7345C109.098 86.5336 117.596 77.8675 127.679 71.3759C137.761 64.8842 149.17 60.7328 161.063 59.228C172.957 57.7232 185.031 58.9035 196.395 62.6818C202.185 64.597 207.74 67.1558 212.956 70.3099C264.758 57.7647 302.846 65.0355 315.23 90.0735ZM225.119 112.243C220.589 103.04 213.762 95.1594 205.293 89.3594L205.176 89.2916C196.216 83.1707 185.765 79.5775 174.92 78.8904C164.076 78.2032 153.24 80.4474 143.554 85.3868C114.293 100.335 102.514 136.834 117.301 166.731L118.97 170.105C119.958 172.132 121.608 173.762 123.649 174.727C125.69 175.692 128 175.934 130.201 175.414C147.393 171.154 164.057 164.983 179.88 157.017C195.812 149.295 210.83 139.815 224.652 128.755C226.405 127.323 227.619 125.339 228.095 123.129C228.571 120.919 228.281 118.616 227.272 116.596L225.119 112.243Z" fill="#4E7FFF"/>
<path d="M370.384 156.562C369.873 154.969 368.933 153.851 367.564 153.209C366.206 152.55 364.455 152.459 362.31 152.937C360.891 153.253 359.749 153.702 358.885 154.282C358.021 154.863 357.425 155.532 357.097 156.288C356.765 157.029 356.684 157.816 356.854 158.647C356.976 159.334 357.243 159.903 357.654 160.355C358.08 160.803 358.626 161.163 359.291 161.433C359.969 161.686 360.754 161.868 361.648 161.979C362.542 162.09 363.532 162.141 364.616 162.133L368.718 162.15C371.075 162.136 373.202 162.345 375.099 162.776C377.01 163.204 378.675 163.85 380.094 164.713C381.528 165.573 382.711 166.668 383.644 167.997C384.576 169.326 385.253 170.898 385.673 172.714C386.298 175.586 386.122 178.21 385.146 180.585C384.17 182.961 382.458 184.995 380.01 186.69C377.577 188.381 374.468 189.648 370.682 190.492C366.881 191.339 363.442 191.508 360.363 190.999C357.285 190.49 354.703 189.25 352.618 187.277C350.533 185.305 349.073 182.549 348.237 179.01L358.752 176.666C359.167 178.11 359.831 179.243 360.743 180.064C361.656 180.885 362.775 181.412 364.099 181.644C365.439 181.873 366.915 181.808 368.527 181.449C370.005 181.119 371.218 180.64 372.164 180.01C373.125 179.376 373.807 178.642 374.211 177.807C374.615 176.972 374.722 176.094 374.532 175.174C374.326 174.319 373.897 173.647 373.244 173.156C372.588 172.65 371.671 172.296 370.492 172.093C369.326 171.872 367.871 171.753 366.129 171.738L361.135 171.687C357 171.662 353.577 170.896 350.866 169.389C348.152 167.867 346.418 165.382 345.665 161.933C345.023 159.126 345.229 156.496 346.281 154.042C347.332 151.587 349.072 149.469 351.5 147.686C353.928 145.903 356.865 144.627 360.31 143.859C363.83 143.074 367.017 142.993 369.872 143.614C372.739 144.216 375.128 145.43 377.041 147.255C378.953 149.079 380.239 151.401 380.898 154.219L370.384 156.562Z" fill="#4E7FFF"/>
<path d="M442.262 161.235C442.256 166.356 441.265 170.696 439.291 174.254C437.317 177.812 434.647 180.513 431.282 182.358C427.931 184.202 424.172 185.122 420.006 185.117C415.824 185.112 412.06 184.176 408.713 182.308C405.367 180.44 402.711 177.732 400.746 174.185C398.796 170.622 397.824 166.287 397.83 161.181C397.836 156.06 398.819 151.72 400.778 148.162C402.752 144.604 405.414 141.902 408.765 140.058C412.115 138.213 415.882 137.294 420.063 137.299C424.23 137.304 427.987 138.233 431.333 140.085C434.694 141.938 437.358 144.646 439.323 148.209C441.288 151.771 442.268 156.114 442.262 161.235ZM430.762 161.221C430.765 158.191 430.337 155.629 429.476 153.538C428.63 151.446 427.404 149.861 425.8 148.783C424.21 147.705 422.294 147.165 420.051 147.162C417.824 147.16 415.907 147.695 414.3 148.769C412.692 149.843 411.455 151.425 410.589 153.515C409.738 155.605 409.311 158.165 409.307 161.195C409.304 164.225 409.725 166.786 410.571 168.878C411.432 170.97 412.665 172.555 414.269 173.633C415.874 174.71 417.79 175.251 420.017 175.253C422.26 175.256 424.177 174.721 425.769 173.647C427.377 172.573 428.606 170.991 429.457 168.901C430.323 166.811 430.758 164.251 430.762 161.221Z" fill="#4E7FFF"/>
<path d="M452.543 186.102L462.78 140.696L481.536 144.925C484.936 145.691 487.731 146.966 489.923 148.749C492.133 150.521 493.654 152.697 494.486 155.276C495.321 157.841 495.389 160.675 494.689 163.779C493.979 166.927 492.689 169.448 490.818 171.34C488.95 173.218 486.622 174.448 483.835 175.031C481.051 175.599 477.929 175.494 474.471 174.714L462.609 172.04L464.559 163.393L474.38 165.607C476.036 165.981 477.466 166.078 478.671 165.899C479.895 165.709 480.894 165.235 481.671 164.479C482.451 163.707 482.999 162.619 483.315 161.215C483.632 159.811 483.605 158.585 483.235 157.539C482.869 156.478 482.176 155.592 481.156 154.88C480.139 154.154 478.81 153.606 477.17 153.236L471.76 152.016L463.517 188.576L452.543 186.102ZM482.784 171.113L489.413 194.414L477.441 191.715L471.034 168.464L482.784 171.113Z" fill="#4E7FFF"/>
<path d="M497.575 197.348L516.78 154.95L534.294 162.883C537.469 164.321 539.949 166.135 541.735 168.324C543.541 170.506 544.59 172.945 544.884 175.639C545.183 178.319 544.676 181.109 543.363 184.007C542.032 186.947 540.259 189.154 538.043 190.629C535.835 192.091 533.306 192.825 530.459 192.832C527.617 192.826 524.582 192.092 521.352 190.629L510.276 185.612L513.934 177.538L523.105 181.692C524.651 182.392 526.032 182.777 527.248 182.845C528.485 182.906 529.559 182.645 530.473 182.06C531.392 181.462 532.149 180.508 532.743 179.197C533.337 177.885 533.559 176.68 533.408 175.581C533.264 174.467 532.764 173.459 531.909 172.556C531.06 171.639 529.869 170.834 528.337 170.14L523.286 167.852L507.823 201.99L497.575 197.348ZM530.222 188.783L532.003 212.943L520.824 207.879L519.25 183.813L530.222 188.783Z" fill="#4E7FFF"/>
<path d="M565.372 178.52L575.457 186.021L571.73 207.522L572.058 207.766L591.578 198.011L601.663 205.511L569.503 220.227L560.226 232.7L551.254 226.027L560.531 213.553L565.372 178.52Z" fill="#4E7FFF"/>
<path d="M138.38 401.936V391.027H142.684C143.511 391.027 144.216 391.185 144.798 391.501C145.381 391.814 145.825 392.249 146.13 392.806C146.439 393.36 146.593 393.999 146.593 394.724C146.593 395.448 146.437 396.088 146.125 396.642C145.812 397.196 145.359 397.627 144.766 397.936C144.177 398.245 143.463 398.399 142.625 398.399H139.882V396.551H142.252C142.696 396.551 143.062 396.475 143.349 396.322C143.641 396.166 143.857 395.951 143.999 395.677C144.145 395.4 144.218 395.083 144.218 394.724C144.218 394.362 144.145 394.046 143.999 393.776C143.857 393.502 143.641 393.291 143.349 393.142C143.058 392.989 142.689 392.913 142.242 392.913H140.686V401.936H138.38ZM170.054 391.027L172.254 394.745H172.339L174.55 391.027H177.155L173.826 396.482L177.229 401.936H174.577L172.339 398.213H172.254L170.017 401.936H167.375L170.789 396.482L167.439 391.027H170.054ZM205.153 391.027H207.459V398.112C207.459 398.907 207.269 399.603 206.889 400.2C206.513 400.796 205.985 401.262 205.307 401.595C204.629 401.926 203.839 402.091 202.937 402.091C202.031 402.091 201.239 401.926 200.561 401.595C199.883 401.262 199.355 400.796 198.979 400.2C198.602 399.603 198.414 398.907 198.414 398.112V391.027H200.721V397.915C200.721 398.33 200.811 398.699 200.992 399.023C201.177 399.346 201.436 399.6 201.77 399.784C202.104 399.969 202.493 400.061 202.937 400.061C203.384 400.061 203.773 399.969 204.103 399.784C204.437 399.6 204.694 399.346 204.876 399.023C205.06 398.699 205.153 398.33 205.153 397.915V391.027ZM229.157 391.027H232.001L235.005 398.357H235.133L238.137 391.027H240.982V401.936H238.745V394.836H238.654L235.831 401.883H234.308L231.484 394.809H231.394V401.936H229.157V391.027ZM291.872 394.165C291.829 393.735 291.646 393.401 291.323 393.163C291 392.925 290.561 392.806 290.008 392.806C289.631 392.806 289.313 392.86 289.054 392.966C288.795 393.069 288.596 393.213 288.457 393.398C288.322 393.582 288.255 393.792 288.255 394.026C288.248 394.221 288.289 394.392 288.378 394.537C288.47 394.683 288.596 394.809 288.756 394.916C288.916 395.019 289.1 395.109 289.31 395.187C289.519 395.262 289.743 395.326 289.981 395.379L290.961 395.613C291.437 395.72 291.874 395.862 292.271 396.04C292.669 396.217 293.014 396.436 293.305 396.695C293.596 396.954 293.821 397.259 293.981 397.611C294.145 397.963 294.228 398.366 294.232 398.82C294.228 399.488 294.058 400.067 293.72 400.557C293.386 401.043 292.903 401.421 292.271 401.691C291.643 401.958 290.885 402.091 289.997 402.091C289.116 402.091 288.349 401.956 287.696 401.686C287.046 401.416 286.538 401.017 286.172 400.487C285.81 399.955 285.62 399.296 285.602 398.511H287.834C287.859 398.877 287.964 399.182 288.148 399.427C288.337 399.669 288.587 399.852 288.9 399.976C289.216 400.097 289.572 400.157 289.97 400.157C290.361 400.157 290.7 400.1 290.988 399.987C291.279 399.873 291.504 399.715 291.664 399.513C291.824 399.31 291.904 399.078 291.904 398.815C291.904 398.57 291.831 398.364 291.685 398.197C291.543 398.03 291.334 397.888 291.057 397.771C290.783 397.654 290.448 397.547 290.05 397.451L288.862 397.153C287.943 396.929 287.216 396.579 286.684 396.104C286.151 395.628 285.886 394.987 285.89 394.181C285.886 393.52 286.062 392.943 286.417 392.449C286.776 391.956 287.268 391.571 287.893 391.294C288.518 391.017 289.228 390.878 290.023 390.878C290.833 390.878 291.54 391.017 292.144 391.294C292.751 391.571 293.223 391.956 293.56 392.449C293.898 392.943 294.072 393.515 294.082 394.165H291.872ZM315.167 392.929V391.027H324.127V392.929H320.787V401.936H318.507V392.929H315.167ZM352.141 391.027H354.447V398.112C354.447 398.907 354.257 399.603 353.877 400.2C353.501 400.796 352.974 401.262 352.295 401.595C351.617 401.926 350.827 402.091 349.925 402.091C349.019 402.091 348.227 401.926 347.549 401.595C346.871 401.262 346.344 400.796 345.967 400.2C345.591 399.603 345.403 398.907 345.403 398.112V391.027H347.709V397.915C347.709 398.33 347.8 398.699 347.981 399.023C348.165 399.346 348.425 399.6 348.758 399.784C349.092 399.969 349.481 400.061 349.925 400.061C350.372 400.061 350.761 399.969 351.091 399.784C351.425 399.6 351.683 399.346 351.864 399.023C352.048 398.699 352.141 398.33 352.141 397.915V391.027ZM380.012 401.936H376.145V391.027H380.044C381.141 391.027 382.086 391.246 382.878 391.682C383.67 392.116 384.279 392.739 384.705 393.552C385.135 394.365 385.349 395.338 385.349 396.471C385.349 397.607 385.135 398.584 384.705 399.401C384.279 400.218 383.666 400.844 382.867 401.281C382.072 401.718 381.12 401.936 380.012 401.936ZM378.451 399.96H379.916C380.598 399.96 381.172 399.839 381.637 399.598C382.105 399.353 382.457 398.975 382.691 398.463C382.929 397.948 383.048 397.284 383.048 396.471C383.048 395.665 382.929 395.006 382.691 394.495C382.457 393.984 382.107 393.607 381.642 393.366C381.177 393.124 380.603 393.003 379.922 393.003H378.451V399.96ZM409.164 391.027V401.936H406.858V391.027H409.164ZM440.887 396.482C440.887 397.671 440.661 398.683 440.21 399.518C439.763 400.352 439.152 400.99 438.378 401.43C437.607 401.867 436.741 402.085 435.779 402.085C434.809 402.085 433.939 401.865 433.169 401.425C432.398 400.985 431.789 400.347 431.341 399.513C430.894 398.678 430.67 397.668 430.67 396.482C430.67 395.292 430.894 394.28 431.341 393.446C431.789 392.611 432.398 391.975 433.169 391.539C433.939 391.098 434.809 390.878 435.779 390.878C436.741 390.878 437.607 391.098 438.378 391.539C439.152 391.975 439.763 392.611 440.21 393.446C440.661 394.28 440.887 395.292 440.887 396.482ZM438.549 396.482C438.549 395.711 438.433 395.061 438.202 394.532C437.975 394.003 437.654 393.602 437.238 393.328C436.823 393.055 436.336 392.918 435.779 392.918C435.221 392.918 434.735 393.055 434.319 393.328C433.904 393.602 433.58 394.003 433.35 394.532C433.122 395.061 433.009 395.711 433.009 396.482C433.009 397.252 433.122 397.902 433.35 398.431C433.58 398.96 433.904 399.362 434.319 399.635C434.735 399.909 435.221 400.045 435.779 400.045C436.336 400.045 436.823 399.909 437.238 399.635C437.654 399.362 437.975 398.96 438.202 398.431C438.433 397.902 438.549 397.252 438.549 396.482ZM468.313 394.165C468.271 393.735 468.088 393.401 467.765 393.163C467.442 392.925 467.003 392.806 466.449 392.806C466.073 392.806 465.755 392.86 465.496 392.966C465.236 393.069 465.038 393.213 464.899 393.398C464.764 393.582 464.697 393.792 464.697 394.026C464.69 394.221 464.73 394.392 464.819 394.537C464.911 394.683 465.038 394.809 465.197 394.916C465.357 395.019 465.542 395.109 465.751 395.187C465.961 395.262 466.185 395.326 466.422 395.379L467.403 395.613C467.878 395.72 468.315 395.862 468.713 396.04C469.111 396.217 469.455 396.436 469.746 396.695C470.038 396.954 470.263 397.259 470.423 397.611C470.586 397.963 470.67 398.366 470.673 398.82C470.67 399.488 470.499 400.067 470.162 400.557C469.828 401.043 469.345 401.421 468.713 401.691C468.084 401.958 467.326 402.091 466.438 402.091C465.558 402.091 464.791 401.956 464.137 401.686C463.487 401.416 462.98 401.017 462.614 400.487C462.252 399.955 462.062 399.296 462.044 398.511H464.276C464.301 398.877 464.405 399.182 464.59 399.427C464.778 399.669 465.029 399.852 465.341 399.976C465.657 400.097 466.014 400.157 466.412 400.157C466.802 400.157 467.142 400.1 467.429 399.987C467.72 399.873 467.946 399.715 468.106 399.513C468.266 399.31 468.345 399.078 468.345 398.815C468.345 398.57 468.273 398.364 468.127 398.197C467.985 398.03 467.775 397.888 467.498 397.771C467.225 397.654 466.889 397.547 466.492 397.451L465.304 397.153C464.384 396.929 463.658 396.579 463.125 396.104C462.593 395.628 462.328 394.987 462.332 394.181C462.328 393.52 462.504 392.943 462.859 392.449C463.218 391.956 463.709 391.571 464.334 391.294C464.959 391.017 465.67 390.878 466.465 390.878C467.275 390.878 467.981 391.017 468.585 391.294C469.192 391.571 469.665 391.956 470.002 392.449C470.339 392.943 470.513 393.515 470.524 394.165H468.313Z" fill="black"/>
</svg>
