<svg width="19" height="19" viewBox="0 0 19 19" fill="none" xmlns="http://www.w3.org/2000/svg">
<rect width="19" height="19" rx="9.5" fill="white"/>
<path d="M9 5C8.0111 5 7.0444 5.29324 6.22215 5.84265C5.3999 6.39206 4.75904 7.17295 4.3806 8.08658C4.00217 9.00021 3.90315 10.0055 4.09608 10.9755C4.289 11.9454 4.76521 12.8363 5.46447 13.5355C6.16373 14.2348 7.05465 14.711 8.02455 14.9039C8.99445 15.0969 9.99979 14.9978 10.9134 14.6194C11.827 14.241 12.6079 13.6001 13.1573 12.7778C13.7068 11.9556 14 10.9889 14 10C13.9986 8.67435 13.4714 7.40339 12.534 6.46601C11.5966 5.52863 10.3257 5.0014 9 5ZM6.40769 13.3413C6.68593 12.9062 7.06924 12.5481 7.52227 12.3C7.97531 12.052 8.4835 11.9219 9 11.9219C9.5165 11.9219 10.0247 12.052 10.4777 12.3C10.9308 12.5481 11.3141 12.9062 11.5923 13.3413C10.8511 13.9178 9.93895 14.2307 9 14.2307C8.06105 14.2307 7.14888 13.9178 6.40769 13.3413ZM7.46154 9.61538C7.46154 9.31111 7.55177 9.01366 7.72082 8.76066C7.88987 8.50766 8.13014 8.31047 8.41126 8.19403C8.69237 8.07759 9.00171 8.04712 9.30014 8.10648C9.59857 8.16585 9.8727 8.31237 10.0879 8.52753C10.303 8.74269 10.4495 9.01681 10.5089 9.31524C10.5683 9.61368 10.5378 9.92301 10.4214 10.2041C10.3049 10.4852 10.1077 10.7255 9.85472 10.8946C9.60173 11.0636 9.30428 11.1538 9 11.1538C8.59198 11.1538 8.20066 10.9918 7.91214 10.7032C7.62363 10.4147 7.46154 10.0234 7.46154 9.61538ZM12.1615 12.8082C11.7326 12.1866 11.1294 11.7057 10.4279 11.426C10.8047 11.1292 11.0797 10.7223 11.2146 10.262C11.3495 9.80164 11.3375 9.31072 11.1805 8.85747C11.0234 8.40423 10.729 8.01119 10.3382 7.73302C9.94745 7.45485 9.47969 7.30537 9 7.30537C8.52032 7.30537 8.05255 7.45485 7.66176 7.73302C7.27097 8.01119 6.97657 8.40423 6.81951 8.85747C6.66245 9.31072 6.65054 9.80164 6.78542 10.262C6.9203 10.7223 7.19528 11.1292 7.57212 11.426C6.87059 11.7057 6.26742 12.1866 5.83846 12.8082C5.29643 12.1986 4.94215 11.4454 4.81829 10.6392C4.69443 9.83296 4.80627 9.00812 5.14035 8.26399C5.47442 7.51986 6.01648 6.88816 6.70125 6.44497C7.38603 6.00178 8.18432 5.76598 9 5.76598C9.81568 5.76598 10.614 6.00178 11.2987 6.44497C11.9835 6.88816 12.5256 7.51986 12.8597 8.26399C13.1937 9.00812 13.3056 9.83296 13.1817 10.6392C13.0579 11.4454 12.7036 12.1986 12.1615 12.8082Z" fill="black"/>
</svg>
