<svg width="22" height="14" viewBox="0 0 22 14" fill="none" xmlns="http://www.w3.org/2000/svg">
<path d="M21.9245 11.3833C21.8489 11.566 21.7207 11.7222 21.5563 11.8321C21.3919 11.9421 21.1986 12.0007 21.0008 12.0008H1.00079C0.802892 12.0009 0.609399 11.9424 0.444805 11.8325C0.280212 11.7226 0.151917 11.5664 0.076165 11.3836C0.000412494 11.2008 -0.0193921 10.9996 0.0192583 10.8055C0.0579087 10.6114 0.153276 10.4331 0.293288 10.2933L10.2933 0.293286C10.3862 0.20031 10.4964 0.126551 10.6178 0.0762272C10.7392 0.0259029 10.8694 0 11.0008 0C11.1322 0 11.2623 0.0259029 11.3837 0.0762272C11.5051 0.126551 11.6154 0.20031 11.7083 0.293286L21.7083 10.2933C21.8481 10.4332 21.9433 10.6115 21.9818 10.8055C22.0202 10.9995 22.0003 11.2006 21.9245 11.3833Z" fill="black"/>
<path d="M13 12C13 13.1046 12.1046 14 11 14C9.89543 14 9 13.1046 9 12C9 10.8954 9.89543 10 11 10C12.1046 10 13 10.8954 13 12Z" fill="black"/>
</svg>
